# xmcd
#
# Track frame offsets:
#	150
#	14036
#	29131
#	43188
#	54406
#	68710
#	80478
#	92037
#	105683
#	119329
#	133539
#	147578
#	160360
#	170738
#	181754
#	193432
#	208412
#	221535
#	232593
#	246980
#	260612
#	272255
#
# Disc length: 3785 seconds
#
# Revision: 0
# Processed by: cddbd v1.5.2PL0 Copyright (c) Steve Scherf et al.
# Submitted via: EasyCDDAExtractor 8.2.3.1
#
DISCID=510ec716
DTITLE=Raridades Sertanejas - Volume 2
DYEAR=1900
DGENRE=Sertanejo
TTITLE0=Resposta do menino da porteira
TTITLE1=Rolinha correio
TTITLE2=A mulher e o doce
TTITLE3=Balança os cacho sinhá
TTITLE4=Romper da aurora
TTITLE5=Sertaneja
TTITLE6=Três fitas
TTITLE7=Triângulo mineiro
TTITLE8=Triste carreiro
TTITLE9=Valsa do amor
TTITLE10=Vinhte anos depois
TTITLE11=Zé Macaia
TTITLE12=Decisão cruel
TTITLE13=Divisa da minha vida
TTITLE14=Mulher do feiticeiro
TTITLE15=Mulher sem nome
TTITLE16=O peão que montou no diabo
TTITLE17=Pagode da comparação
TTITLE18=Peão de ouro
TTITLE19=Teu fracasso
TTITLE20=Xote da moreninha
TTITLE21=Zé do Pinho
EXTD=
EXTT0=
EXTT1=
EXTT2=
EXTT3=
EXTT4=
EXTT5=
EXTT6=
EXTT7=
EXTT8=
EXTT9=
EXTT10=
EXTT11=
EXTT12=
EXTT13=
EXTT14=
EXTT15=
EXTT16=
EXTT17=
EXTT18=
EXTT19=
EXTT20=
EXTT21=
PLAYORDER=
